<svg id="svg" version="1.1" xmlns="http://www.w3.org/2000/svg" xmlns:xlink="http://www.w3.org/1999/xlink" width="400" height="400" viewBox="0, 0, 400,400"><g id="svgg"><path id="path0" d="M170.400 23.974 L 170.400 31.147 163.632 31.274 C 159.910 31.343,156.715 31.550,156.532 31.732 C 156.350 31.915,156.143 35.110,156.074 38.832 L 155.947 45.600 149.574 45.600 L 143.200 45.600 143.200 52.800 L 143.200 60.000 136.000 60.000 L 128.800 60.000 128.800 74.200 L 128.800 88.400 220.018 88.400 L 311.236 88.400 312.236 89.400 C 313.227 90.390,313.304 90.400,320.218 90.400 L 327.200 90.400 327.200 75.200 L 327.200 60.000 320.000 60.000 L 312.800 60.000 312.800 52.800 L 312.800 45.600 306.400 45.600 L 300.000 45.600 300.000 38.880 C 300.000 34.187,299.855 32.015,299.520 31.680 C 299.165 31.325,295.413 31.200,285.120 31.200 L 271.200 31.200 271.200 24.000 L 271.200 16.800 220.800 16.800 L 170.400 16.800 170.400 23.974 M227.452 33.643 C 228.275 34.326,228.240 45.703,227.414 46.389 C 227.004 46.729,225.027 46.859,220.847 46.822 C 213.638 46.757,214.215 46.156,214.144 53.800 C 214.113 57.100,214.068 60.025,214.044 60.300 C 214.011 60.677,212.465 60.800,207.774 60.800 C 199.395 60.800,200.000 60.240,200.000 67.990 C 200.000 71.687,199.837 74.454,199.610 74.594 C 198.746 75.128,145.083 74.858,144.740 74.317 C 144.179 73.433,144.323 61.697,144.900 61.324 C 145.175 61.146,148.280 60.910,151.800 60.800 L 158.200 60.600 158.400 53.800 L 158.600 47.000 165.000 46.800 C 173.117 46.546,172.443 47.177,172.378 39.889 C 172.334 35.035,172.437 33.762,172.901 33.423 C 173.743 32.807,226.703 33.021,227.452 33.643 M283.259 47.281 C 283.440 47.567,283.591 50.539,283.594 53.886 C 283.602 61.542,282.036 60.800,298.184 60.800 L 311.220 60.800 311.638 61.900 C 312.259 63.531,311.947 73.703,311.251 74.540 C 310.483 75.463,215.203 75.568,214.439 74.647 C 214.124 74.268,214.014 72.035,214.090 67.547 L 214.200 61.000 227.800 60.800 L 241.400 60.600 241.497 54.600 C 241.612 47.473,241.715 46.896,242.901 46.728 C 245.931 46.297,282.957 46.805,283.259 47.281 M173.100 116.826 C 172.161 117.381,172.029 129.594,172.954 130.362 C 173.332 130.675,175.462 130.786,179.654 130.711 L 185.800 130.600 185.800 123.600 L 185.800 116.600 179.800 116.507 C 176.213 116.451,173.519 116.579,173.100 116.826 M269.805 117.130 C 269.673 117.475,269.600 120.691,269.642 124.278 L 269.720 130.800 276.404 130.800 L 283.089 130.800 283.341 128.700 C 283.868 124.310,283.648 117.705,282.952 117.009 C 282.007 116.064,270.173 116.173,269.805 117.130 M200.600 144.269 C 199.829 144.423,199.804 144.701,199.917 151.814 L 200.034 159.200 241.800 159.200 L 283.566 159.200 283.683 151.820 C 283.795 144.727,283.769 144.432,283.000 144.225 C 282.090 143.981,201.828 144.023,200.600 144.269 M200.939 172.099 C 201.490 172.456,214.181 172.448,213.824 172.090 C 213.687 171.954,210.629 171.833,207.027 171.821 C 203.425 171.809,200.686 171.934,200.939 172.099 M165.640 228.381 C 169.292 228.501,172.541 228.780,172.859 229.000 C 173.177 229.220,173.094 229.085,172.675 228.700 C 172.005 228.086,171.118 228.010,165.456 228.081 L 159.000 228.162 165.640 228.381 M171.542 350.836 C 170.889 351.240,171.735 351.594,172.731 351.334 C 173.209 351.209,173.600 350.986,173.600 350.839 C 173.600 350.494,172.099 350.491,171.542 350.836 M200.847 351.971 C 200.446 352.219,200.469 352.341,200.954 352.527 C 201.295 352.658,201.673 352.605,201.794 352.410 C 202.109 351.900,201.454 351.596,200.847 351.971 M200.650 381.919 C 200.350 382.404,201.110 383.426,201.478 383.034 C 201.655 382.845,201.574 382.610,201.298 382.511 C 201.021 382.412,200.897 382.167,201.021 381.966 C 201.145 381.765,201.157 381.600,201.047 381.600 C 200.937 381.600,200.758 381.744,200.650 381.919 " stroke="none" fill="#2b1304" fill-rule="evenodd"></path><path id="path1" d="M242.901 46.728 C 241.715 46.896,241.612 47.473,241.497 54.600 L 241.400 60.600 227.800 60.800 L 214.200 61.000 214.090 67.547 C 214.014 72.035,214.124 74.268,214.439 74.647 C 215.203 75.568,310.483 75.463,311.251 74.540 C 311.947 73.703,312.259 63.531,311.638 61.900 L 311.220 60.800 298.184 60.800 C 282.036 60.800,283.602 61.542,283.594 53.886 C 283.591 50.539,283.440 47.567,283.259 47.281 C 282.957 46.805,245.931 46.297,242.901 46.728 M282.752 47.818 C 282.888 47.955,282.938 50.735,282.863 53.996 C 282.668 62.406,281.263 61.666,297.252 61.572 C 305.616 61.523,310.199 61.639,310.469 61.909 C 310.941 62.381,311.061 72.614,310.607 73.700 C 310.152 74.788,214.820 74.788,214.764 73.700 C 214.640 71.314,214.762 61.904,214.919 61.748 C 215.023 61.643,220.962 61.572,228.116 61.589 C 244.053 61.627,242.502 62.428,242.355 54.240 C 242.252 48.535,242.291 48.179,243.049 47.800 C 243.924 47.365,282.315 47.382,282.752 47.818 M158.643 103.433 C 158.509 103.781,158.400 106.654,158.400 109.819 C 158.400 116.908,158.012 116.544,165.355 116.343 C 172.109 116.159,171.600 115.598,171.600 123.224 C 171.600 127.208,171.750 129.600,172.000 129.600 C 172.249 129.600,172.400 127.271,172.400 123.414 C 172.400 115.885,171.848 116.400,179.912 116.400 L 185.876 116.400 185.955 110.277 C 185.998 106.909,185.917 103.849,185.774 103.477 C 185.390 102.476,159.026 102.433,158.643 103.433 M270.263 103.070 C 269.752 103.581,270.008 116.397,270.530 116.429 C 270.788 116.444,273.541 116.433,276.646 116.403 C 283.858 116.334,283.601 116.123,283.597 122.129 C 283.595 124.588,283.480 127.543,283.341 128.695 L 283.090 130.791 234.912 130.792 C 208.415 130.792,186.570 130.895,186.368 131.020 C 185.820 131.358,185.895 143.488,186.447 143.829 C 186.693 143.981,211.758 144.105,242.147 144.105 L 297.400 144.105 297.400 137.353 L 297.400 130.600 291.339 130.581 C 283.470 130.556,284.000 131.077,284.000 123.380 C 284.000 115.622,283.596 116.073,290.331 116.316 C 293.192 116.419,296.002 116.386,296.576 116.242 L 297.620 115.980 297.510 109.490 L 297.400 103.000 283.972 102.895 C 276.586 102.837,270.418 102.916,270.263 103.070 M200.000 164.971 C 200.000 172.488,199.592 172.081,206.947 171.885 C 212.686 171.731,214.560 171.999,214.955 173.028 C 215.143 173.518,220.058 173.600,249.160 173.600 L 283.145 173.600 283.272 167.100 C 283.343 163.525,283.334 160.285,283.253 159.900 C 283.115 159.239,280.805 159.200,241.553 159.200 L 200.000 159.200 200.000 164.971 M144.986 227.963 C 144.538 228.154,143.953 228.575,143.685 228.897 C 143.305 229.355,143.220 246.382,143.299 306.242 L 143.400 383.000 172.144 383.103 C 197.338 383.193,200.860 383.132,200.661 382.615 C 200.537 382.291,200.635 381.902,200.879 381.751 C 201.133 381.595,201.212 381.657,201.064 381.896 C 200.921 382.127,201.064 382.416,201.382 382.538 C 201.753 382.680,201.885 382.566,201.752 382.220 C 201.639 381.924,201.738 381.562,201.973 381.417 C 202.567 381.049,202.571 353.600,201.976 353.600 C 201.743 353.600,201.671 353.409,201.816 353.175 C 202.885 351.444,201.463 351.270,186.113 351.244 C 178.069 351.231,171.392 351.126,171.277 351.010 C 171.161 350.895,171.322 350.779,171.633 350.754 C 173.524 350.600,173.393 354.866,173.501 290.150 C 173.595 234.353,173.552 229.658,172.942 229.150 C 172.000 228.366,146.572 227.287,144.986 227.963 " stroke="none" fill="#cd5013" fill-rule="evenodd"></path><path id="path2" d="M172.901 33.423 C 172.437 33.762,172.334 35.035,172.378 39.889 C 172.443 47.177,173.117 46.546,165.000 46.800 L 158.600 47.000 158.400 53.800 L 158.200 60.600 151.800 60.800 C 148.280 60.910,145.175 61.146,144.900 61.324 C 144.323 61.697,144.179 73.433,144.740 74.317 C 145.083 74.858,198.746 75.128,199.610 74.594 C 199.837 74.454,200.000 71.687,200.000 67.990 C 200.000 60.240,199.395 60.800,207.774 60.800 C 212.465 60.800,214.011 60.677,214.044 60.300 C 214.068 60.025,214.113 57.100,214.144 53.800 C 214.215 46.156,213.638 46.757,220.847 46.822 C 225.027 46.859,227.004 46.729,227.414 46.389 C 228.240 45.703,228.275 34.326,227.452 33.643 C 226.703 33.021,173.743 32.807,172.901 33.423 M227.013 34.021 C 227.156 34.252,227.273 36.943,227.273 40.000 C 227.273 46.993,227.889 46.400,220.625 46.400 C 213.087 46.400,213.650 45.813,213.511 53.828 L 213.400 60.200 207.028 60.311 C 199.029 60.449,199.600 59.918,199.600 67.216 C 199.600 70.471,199.491 73.419,199.357 73.767 C 198.964 74.793,145.816 74.727,145.405 73.700 C 144.966 72.602,145.119 62.321,145.582 61.858 C 145.833 61.607,148.268 61.490,151.920 61.556 C 159.285 61.688,158.749 62.256,158.889 54.172 L 159.000 47.800 165.516 47.600 C 173.384 47.358,172.786 47.969,172.794 40.167 C 172.797 36.848,172.920 34.013,173.067 33.867 C 173.534 33.399,226.723 33.551,227.013 34.021 M128.800 129.400 L 128.800 170.400 101.249 170.400 C 78.332 170.400,73.621 170.493,73.241 170.951 C 72.922 171.335,72.816 173.978,72.892 179.651 L 73.000 187.800 80.074 187.909 L 87.148 188.018 87.274 194.777 C 87.343 198.494,87.549 201.685,87.732 201.868 C 88.396 202.531,99.002 202.521,99.554 201.856 C 101.005 200.107,101.600 202.153,101.600 208.889 L 101.600 215.200 107.991 215.200 L 114.382 215.200 114.491 222.300 L 114.600 229.400 128.769 229.505 L 142.937 229.610 143.905 228.705 L 144.873 227.800 158.336 227.922 C 170.923 228.037,171.871 228.095,172.884 228.822 C 173.924 229.568,174.803 229.600,194.584 229.600 L 215.200 229.600 215.200 201.449 C 215.200 177.392,215.116 173.228,214.622 172.818 C 214.223 172.487,212.088 172.348,207.722 172.368 C 199.325 172.407,200.236 174.090,200.000 158.115 L 199.800 144.600 193.428 144.489 C 189.560 144.422,186.849 144.207,186.528 143.941 C 185.900 143.419,185.756 131.398,186.374 131.016 C 186.579 130.889,205.164 130.787,227.674 130.789 C 250.183 130.790,268.841 130.638,269.136 130.450 C 269.688 130.098,269.731 125.319,269.323 109.565 C 269.190 104.390,269.263 103.245,269.758 102.835 C 270.650 102.095,297.169 102.132,297.692 102.874 C 298.088 103.437,297.789 143.371,297.384 144.027 C 297.256 144.233,294.226 144.400,290.600 144.400 C 286.996 144.400,283.968 144.535,283.871 144.700 C 283.774 144.865,283.566 151.435,283.409 159.300 L 283.124 173.600 297.965 173.600 L 312.807 173.600 312.796 131.618 L 312.786 89.635 311.904 89.018 C 311.115 88.465,301.411 88.400,219.911 88.400 L 128.800 88.400 128.800 129.400 M186.090 102.730 C 186.580 103.220,186.760 114.339,186.293 115.320 C 186.105 115.715,185.917 119.315,185.875 123.320 L 185.800 130.600 179.654 130.711 C 175.238 130.790,173.341 130.683,172.915 130.330 C 172.436 129.932,172.250 129.968,171.941 130.519 C 171.521 131.270,159.588 131.561,158.462 130.847 C 157.918 130.502,157.719 104.397,158.250 103.013 C 158.601 102.098,185.187 101.827,186.090 102.730 " stroke="none" fill="#18b320" fill-rule="evenodd"></path><path id="path3" d="M173.067 33.867 C 172.920 34.013,172.797 36.848,172.794 40.167 C 172.786 47.969,173.384 47.358,165.516 47.600 L 159.000 47.800 158.889 54.172 C 158.749 62.256,159.285 61.688,151.920 61.556 C 148.268 61.490,145.833 61.607,145.582 61.858 C 145.119 62.321,144.966 72.602,145.405 73.700 C 145.816 74.727,198.964 74.793,199.357 73.767 C 199.491 73.419,199.600 70.471,199.600 67.216 C 199.600 59.918,199.029 60.449,207.028 60.311 L 213.400 60.200 213.511 53.828 C 213.650 45.813,213.087 46.400,220.625 46.400 C 227.889 46.400,227.273 46.993,227.273 40.000 C 227.273 36.943,227.156 34.252,227.013 34.021 C 226.723 33.551,173.534 33.399,173.067 33.867 M159.534 102.323 C 158.947 102.391,158.370 102.702,158.250 103.013 C 157.719 104.397,157.918 130.502,158.462 130.847 C 159.730 131.650,171.539 131.260,172.000 130.400 C 172.430 129.597,171.729 129.204,171.060 129.873 C 170.735 130.199,159.802 130.172,159.272 129.844 C 158.839 129.577,158.192 104.885,158.585 103.646 C 158.951 102.495,185.318 102.288,185.757 103.433 C 185.891 103.781,186.003 106.706,186.006 109.933 C 186.009 113.160,186.144 115.592,186.306 115.338 C 186.739 114.658,186.536 103.176,186.083 102.723 C 185.731 102.371,162.191 102.016,159.534 102.323 M269.946 102.723 C 269.277 103.192,269.200 103.837,269.200 108.990 C 269.200 117.087,269.760 117.514,270.000 109.600 L 270.200 103.000 283.800 103.000 L 297.400 103.000 297.257 116.900 C 297.155 126.883,297.239 130.800,297.557 130.800 C 298.089 130.800,298.185 103.711,297.655 102.876 C 297.168 102.107,271.031 101.963,269.946 102.723 " stroke="none" fill="#45c88e" fill-rule="evenodd"></path><path id="path4" d="M243.049 47.800 C 242.291 48.179,242.252 48.535,242.355 54.240 C 242.502 62.428,244.053 61.627,228.116 61.589 C 220.962 61.572,215.023 61.643,214.919 61.748 C 214.762 61.904,214.640 71.314,214.764 73.700 C 214.820 74.788,310.152 74.788,310.607 73.700 C 311.061 72.614,310.941 62.381,310.469 61.909 C 310.199 61.639,305.616 61.523,297.252 61.572 C 281.263 61.666,282.668 62.406,282.863 53.996 C 282.938 50.735,282.888 47.955,282.752 47.818 C 282.315 47.382,243.924 47.365,243.049 47.800 M158.725 122.539 C 158.794 126.312,158.999 129.551,159.180 129.735 C 159.591 130.152,170.463 130.256,171.120 129.849 C 171.815 129.420,171.796 116.974,171.100 116.524 C 170.825 116.346,168.240 116.265,165.355 116.343 C 162.287 116.427,159.796 116.319,159.355 116.082 C 158.627 115.692,158.604 115.919,158.725 122.539 M284.528 116.729 C 284.137 117.120,284.000 118.838,284.000 123.367 C 284.000 131.161,283.511 130.685,291.300 130.480 L 297.200 130.325 297.200 123.795 C 297.200 120.204,297.291 117.026,297.403 116.733 C 297.698 115.960,285.300 115.956,284.528 116.729 " stroke="none" fill="#f4b638" fill-rule="evenodd"></path></g></svg>